<svg xmlns="http://www.w3.org/2000/svg" xml:space="preserve" viewBox="0 0 1024 1024"><path d="M869.302 475.033c.661 12.583 2.041 24.725 1.826 36.838-1.783 100.632-37.752 186.648-111.35 255.938-34.4 32.384-74.606 55.655-119.047 71.694-33.424 12.063-67.827 18.844-103.296 20.995-67.463 4.092-130.697-10.836-190.026-42.38-62.293-33.12-110.502-80.79-143.51-143.337-18.592-35.228-30.122-72.734-35.44-112.278-2.829-21.043-4.046-42.103-3.592-63.255.537-25.034 4.383-49.674 10.436-73.961 11.914-47.811 33.877-90.579 64.65-128.954 37.977-47.356 84.803-82.964 140.763-106.56 29.467-12.425 60.1-20.607 91.75-24.762 24.316-3.192 48.727-3.257 73.24-1.542 44.074 3.083 85.89 14.237 125.63 33.33 53.626 25.765 97.897 62.81 133.037 110.806 29.457 40.234 49.473 84.663 59.504 133.549 2.271 11.067 4.007 22.217 5.425 33.879m-377.301-164.54c-1.134.236-2.259.527-3.402.703-62.782 9.7-111.568 41.444-145.557 94.795-25.902 40.657-36.072 85.53-29.808 133.644 6.574 50.5 29.293 92.46 67.38 126.208 37.172 32.937 81.104 49.065 130.168 51.656 26.873 1.419 53.058-3.26 78.392-12.416 7.78-2.811 8.24-2.685 12.38 4.088 3.871 6.332 3.565 7.524-3.377 10.07-25.215 9.245-51.229 14.683-78.117 14.75-29.423.076-57.924-5.39-85.302-16.298-97.124-38.697-156.183-140.464-135.092-246.01 10.04-50.241 34.535-92.006 73.209-125.263 34.41-29.59 74.776-45.978 119.67-51.921 31.228-4.135 61.783-1.132 91.83 7.556 33.687 9.742 63.35 26.815 89.19 50.533 1.161 1.066 2.149 3.098 4.084 2.248 5.086-2.233 10.36-4.22 14.767-8.02-.685-1.023-.994-1.61-1.421-2.094-.77-.872-1.564-1.736-2.43-2.511-44.988-40.262-97.218-63.579-157.822-66.72-34.909-1.81-68.781 3.93-101.198 16.967-47.064 18.927-85.264 49.174-112.89 91.904-33.349 51.582-46.39 108.019-35.947 168.76 10.486 60.984 40.52 110.815 90.008 148.423 40.254 30.591 85.806 47.343 136.23 49.954 29.829 1.544 59.068-2.817 87.448-12.478 55.31-18.828 98.373-53.585 131.694-101.036 3.597-5.123 3.27-6.452-1.76-10.242a43385.582 43385.582 0 0 0-57.916-43.57c-1.292-.97-2.47-2.296-4.31-2.159-1.58.918-2.15 2.543-3.056 3.918-26.555 40.313-62.25 67.526-110.333 77.01-39.077 7.707-76.07 1.746-110.29-18.39-55.86-32.869-84.071-96.062-71.752-159.824 13.446-69.593 69.858-120.546 145.892-124.8 34.005-1.904 65.626 7.072 93.947 26.535 1.329.913 2.663 2.332 4.503 1.398 5.138-2.606 10.576-4.684 15.21-7.916-.447-2.754-2.35-3.693-3.932-4.829-37.115-26.621-78.518-37.074-123.727-31.917-37.701 4.301-71.135 18.936-98.552 45.317-42.816 41.198-60.757 91.608-52.697 150.732 4.214 30.916 15.985 59.004 36.356 82.566 39.168 45.305 89.215 66.028 149.049 61.831 34.073-2.39 64.668-14.706 92.157-34.913 14.2-10.438 26.506-22.781 37.515-36.48 4.093-5.092 8.584-5.181 12.747-.269 3.038 3.585 2.32 6.882-.458 10.293-9.59 11.78-19.76 22.973-31.542 32.638-44.034 36.118-94.417 51.201-150.86 44.095-34.532-4.348-65.795-17.492-93.012-39.62-44.647-36.298-67.813-83.489-70.215-140.669-1.168-27.795 4.394-54.758 15.807-80.164 19.623-43.682 51.092-76.072 94.915-95.716 36.155-16.207 73.96-21.174 113.164-14.239 30.202 5.343 58.179 16.241 81.948 35.745 7.77 6.375 13.45 6.937 21.16 1.72 4.07-2.754 4.512-3.566.6-6.8-7.838-6.477-15.904-12.65-24.605-17.962-34.61-21.124-71.917-32.729-112.72-32.24-8.835.107-17.646.37-27.32 1.428m249.46 11.36c-12.185 19.304-30.165 31.485-50.179 41.386-35.966 17.794-71.811 35.835-107.664 53.858-11.168 5.614-22.199 11.576-31.782 19.693-22.257 18.851-36.116 41.944-35.61 72.116.157 9.326.057 18.657.021 27.985-.007 1.79.414 3.68-.747 5.324-1.76.814-3.218-.38-4.807-.646-8.494-1.428-16.033.242-21.36 7.51-4.866 6.635-5.432 13.941-1.46 21.151 4.145 7.523 10.851 11.014 19.447 10.696 12.086-.448 21.703-10.037 23.362-23.282 1.996-15.932.592-31.94 1.016-47.908.283-10.628 2.638-20.782 7.08-30.402 9.088-19.679 24.652-32.72 43.646-42.213 33.516-16.752 67.077-33.418 100.483-50.387 16.59-8.427 33.861-15.728 48.251-28.01 17.166-14.652 23.156-33.508 21.217-55.425-.065-.732-.163-1.718-1.627-1.855-3.173 6.433-4.962 13.612-9.288 20.408M396.563 461.012c-.8 2.012-1.63 4.013-2.394 6.038-5.648 14.954-8.752 30.363-7.942 46.407.63 12.47 7.016 22.087 16.017 24.49 9.228 2.463 12.544.126 12.56-9.402.01-6.255.794-12.262 3.108-18.09 1.051-2.647 2.631-4.87 5.375-5.509 11.676-2.718 18.533-11.727 26.264-19.657 3.791-3.888 5.342-9.235 8.891-13.242 6.859-7.745 10.273-17.023 12.172-26.988.546-2.865.067-5.557-1.11-8.268-1.792-4.127-6.385-8.394-4.607-12.358 1.812-4.04 7.555-5.626 11.678-8.129.991-.602 2.092-1.025 3.147-1.522 3.297-1.552 6.463-3.464 6.022-7.659-.482-4.593-3.482-7.722-7.845-8.695-3.564-.794-7.158-1.483-10.643-2.568-2.306-.719-4.178.129-6.222.927-4.33 1.69-6.84 5.592-10.37 8.17-5.394 3.94-10.214 9.15-17.554 9.74-.892.072-1.82.845-2.56 1.49-14.25 12.398-25.591 27.027-33.987 44.825m278.7 11.663c2.561-1.204 5.107-2.444 7.69-3.597 1.968-.878 4.771-1.343 5.134-3.56 1.032-6.308 1.031-12.691-.088-18.864-2.656-.378-4.172.8-5.804 1.565-7.84 3.67-15.423 8.08-23.564 10.863-8.53 2.915-11.697 7.759-10.61 16.596.674 5.47.442 11.158-.594 17.071-2.136-.663-3.682-1.156-5.237-1.622-9.068-2.723-18.583 1.21-23.487 9.703-4.541 7.863-2.876 17.78 4.05 24.126 11.896 10.899 31.163 4.322 35.884-12.21 1.682-5.893.966-11.909 1.108-17.877.422-17.815-2.49-13.184 12.618-20.739.745-.372 1.477-.77 2.9-1.455m-10.5-199.485c-.74.665-1.522 1.29-2.214 2-7.39 7.595-7.106 17.996.67 25.104 7.82 7.145 19.053 6.811 25.773-.767 5.792-6.533 6.24-15.928 1.069-22.415-6.511-8.166-15.348-9.728-25.298-3.922z"/><path d="M673.161 650.161c5.2-5.86 10.178-11.446 15.11-17.071 4.598-5.242 11.758-4.366 15.2 1.767 1.355 2.415.198 4.1-1.047 5.905-5.406 7.84-12.037 14.624-18.575 21.482-14.778 15.503-31.49 28.598-49.785 39.683-7.188 4.355-14.723 1.512-17.462-6.459-1.08-3.142 1.801-3.604 3.456-4.532a245.233 245.233 0 0 0 31.896-21.33c7.47-5.881 14.26-12.482 21.207-19.445z"/></svg>